<svg width="120" height="40" viewBox="0 0 120 40" fill="none" xmlns="http://www.w3.org/2000/svg">
<path d="M18.4321 10.0481C17.7852 9.10884 16.8604 8.37195 15.6575 7.83713C14.4547 7.30207 13.1416 7.02174 11.7188 6.99566C9.85627 6.99566 8.34304 7.3674 7.17863 8.11087C6.01471 8.8546 5.43238 9.86549 5.43238 11.1435C5.43238 12.3438 5.99537 13.2177 7.12062 13.7655C8.24587 14.3135 9.88213 14.7437 12.0294 15.0569C13.6333 15.2917 15.0044 15.5657 16.1427 15.8784C17.2807 16.1917 18.4062 16.6548 19.5187 17.2676C20.6311 17.8807 21.4784 18.7156 22.0602 19.7721C22.6423 20.8288 22.9333 22.0868 22.9333 23.5482C22.9333 25.5047 22.3708 27.1352 21.2456 28.4398C20.1201 29.7437 18.749 30.6637 17.1323 31.1983C15.5154 31.7328 13.6978 32 11.6801 32C6.11817 32 2.22488 29.9263 0 25.7786L3.25948 23.5872C5.01854 26.587 7.83855 28.0873 11.7188 28.0873C12.9088 28.0873 13.9954 27.9569 14.9785 27.6963C15.9616 27.435 16.8089 26.946 17.5203 26.2284C18.2317 25.5112 18.5873 24.6176 18.5873 23.5482C18.5873 22.1656 17.9728 21.1415 16.7443 20.4765C15.5154 19.8113 13.8143 19.335 11.6412 19.0483C10.3994 18.8916 9.33244 18.709 8.43997 18.5003C7.54727 18.2917 6.6096 17.9916 5.62673 17.6004C4.64362 17.2091 3.84809 16.7394 3.24014 16.1917C2.63219 15.6437 2.1277 14.9329 1.72691 14.059C1.32589 13.1848 1.12549 12.1871 1.12549 11.0655C1.12549 9.70875 1.43563 8.50894 2.05663 7.46539C2.67739 6.42183 3.50532 5.60035 4.53992 4.99995C5.57476 4.40005 6.6872 3.95031 7.87723 3.65024C9.06726 3.35016 10.309 3.2 11.6025 3.2C16.4402 3.2 19.8162 4.73937 21.7305 7.81763L18.4321 10.0481Z" fill="#182037"/>
<path d="M30.1222 17.1957C29.0518 18.401 28.5165 19.8757 28.5165 21.6194C28.5165 23.3634 29.0453 24.8244 30.103 26.0046C31.1606 27.1842 32.5791 27.7739 34.3591 27.7739C36.1389 27.7739 37.5641 27.1842 38.6345 26.0046C39.705 24.8244 40.2403 23.3634 40.2403 21.6194C40.2403 19.9011 39.6857 18.4331 38.5767 17.2149C37.4675 15.9969 36.0615 15.3877 34.3591 15.3877C32.6051 15.3877 31.1929 15.9904 30.1222 17.1957ZM41.4978 14.5608C43.3424 16.4457 44.2646 18.7986 44.2646 21.6194C44.2646 24.4657 43.3552 26.8188 41.5368 28.6778C39.718 30.5371 37.3255 31.4668 34.3591 31.4668C31.4185 31.4668 29.0453 30.5371 27.2397 28.6778C25.4342 26.8188 24.5312 24.4657 24.5312 21.6194C24.5312 18.7729 25.4407 16.4138 27.259 14.5416C29.0776 12.6694 31.4443 11.7335 34.3591 11.7335C37.2739 11.7335 39.6536 12.6757 41.4978 14.5608Z" fill="#182037"/>
<path d="M60.4699 26.0209C61.6004 24.8883 62.1654 23.4339 62.1654 21.6577C62.1654 19.8557 61.6131 18.3945 60.5088 17.2748C59.404 16.155 57.9528 15.595 56.1546 15.595C54.3566 15.595 52.9117 16.1742 51.8201 17.3325C50.7285 18.4912 50.1827 19.9327 50.1827 21.6577C50.1827 23.3822 50.7477 24.8241 51.878 25.9824C53.008 27.1409 54.4337 27.7199 56.1546 27.7199C57.9015 27.7199 59.3399 27.1539 60.4699 26.0209ZM45.8672 40V12.1194H49.6045L49.8359 15.2089C50.5295 14.1016 51.4863 13.2459 52.7063 12.6407C53.9265 12.036 55.2044 11.7333 56.5398 11.7333C59.3656 11.7591 61.671 12.6989 63.4562 14.5524C65.2412 16.4059 66.1339 18.7744 66.1339 21.6577C66.1339 24.5665 65.2607 26.9477 63.5138 28.8017C61.767 30.6549 59.4424 31.5818 56.5398 31.5818C55.2301 31.5818 53.9522 31.3174 52.7063 30.7901C51.4606 30.2626 50.5036 29.4577 49.8359 28.3766V40H45.8672Z" fill="#182037"/>
<path d="M115.541 19.7716C115.437 18.324 114.876 17.2065 113.856 16.419C112.835 15.6319 111.512 15.2382 109.885 15.2382C108.387 15.2382 107.102 15.6319 106.03 16.419C104.958 17.2065 104.267 18.324 103.957 19.7716H115.541ZM103.88 23.086C104.061 24.508 104.713 25.6509 105.836 26.5145C106.96 27.3781 108.387 27.8098 110.117 27.8098C111.15 27.8098 112.19 27.6256 113.236 27.257C114.282 26.8894 115.089 26.4001 115.657 25.7907L118.253 28.2668C117.297 29.2825 116.077 30.07 114.592 30.6291C113.107 31.1875 111.589 31.4668 110.04 31.4668C106.915 31.4668 104.416 30.5652 102.543 28.7621C100.671 26.959 99.7344 24.5459 99.7344 21.5237C99.7344 18.6541 100.664 16.3047 102.524 14.4761C104.383 12.6476 106.798 11.7335 109.768 11.7335C112.971 11.7335 115.463 12.6984 117.246 14.6287C119.028 16.5588 119.738 19.3779 119.376 23.086H103.88Z" fill="#182037"/>
<path d="M89.9743 13.4241C89.2012 13.8421 88.4278 13.8421 87.6545 13.4241C87.354 13.2615 87.1135 13.0528 86.9297 12.8003V30.9336H90.663V12.849C90.4842 13.0795 90.2557 13.2722 89.9743 13.4241Z" fill="#182037"/>
<path d="M96.9118 13.4241C96.1387 13.8421 95.3654 13.8421 94.592 13.4241C94.2915 13.2615 94.051 13.0528 93.8672 12.8003V30.9336H97.6005V12.849C97.4217 13.0795 97.1932 13.2722 96.9118 13.4241Z" fill="#182037"/>
<path d="M89.9984 7.23159C89.1985 6.834 88.3984 6.834 87.5983 7.23159C86.7984 7.62919 86.3984 8.32498 86.3984 9.31943C86.3984 10.3137 86.7984 11.0157 87.5983 11.4256C88.3984 11.836 89.1985 11.836 89.9984 11.4256C90.7985 11.0157 91.1984 10.3137 91.1984 9.31943C91.1984 8.32521 90.7985 7.62919 89.9984 7.23159Z" fill="#182037"/>
<path d="M94.5359 11.4256C95.336 11.836 96.1361 11.836 96.9359 11.4256C97.736 11.0157 98.1359 10.3137 98.1359 9.31943C98.1359 8.32521 97.736 7.62919 96.9359 7.23159C96.1361 6.834 95.336 6.834 94.5359 7.23159C93.7361 7.62919 93.3359 8.32498 93.3359 9.31943C93.3359 10.3137 93.7361 11.0157 94.5359 11.4256Z" fill="#182037"/>
<path d="M85.2626 11.1017C85.0847 11.1265 84.9068 11.1677 84.728 11.1736C82.5471 11.2456 82.6318 10.9923 82.681 9.28207C82.6974 8.70977 82.6888 8.1365 82.6817 7.56372C82.6744 6.94901 82.8036 6.41578 83.507 6.22588C83.8648 6.12939 83.9137 5.84967 84.0277 5.56137C85.4026 2.08489 88.0789 0.198334 91.8296 0.0141573C95.4081 -0.161442 98.2195 1.31983 100.026 4.43392C100.458 5.17801 100.48 6.20802 101.557 6.53753C101.703 6.58233 101.816 6.95235 101.821 7.17488C101.85 8.25945 101.903 9.34997 101.817 10.4288C101.745 11.3316 100.932 11.1165 100.316 11.1889C99.6426 11.268 99.4001 10.9256 99.4297 10.3705C99.4828 9.37857 99.6041 8.38573 99.4962 7.39575C99.1642 4.34624 96.6946 1.90119 93.48 1.40346C89.8705 0.844501 86.4767 2.7892 85.3003 6.16322C84.7392 7.77268 85.0226 9.42955 85.2626 11.1017Z" fill="#182037"/>
<path d="M72.001 2.13311H67.7344V14.9331C68.7718 12.951 70.3144 11.8516 72.001 11.0045V2.13311Z" fill="#182037"/>
<path d="M82.7741 14.1334C81.4241 12.5335 79.4121 11.7336 76.7385 11.7336C76.6687 11.7336 76.6007 11.7362 76.5324 11.7384C76.4639 11.7362 76.3959 11.7336 76.3261 11.7336C73.6527 11.7336 71.6408 12.5335 70.2905 14.1334C68.9406 15.7335 68.2656 17.929 68.2656 20.7192V30.9336H72.3554V20.7577C72.3554 19.0169 72.7922 17.6919 73.6658 16.7831C74.3916 16.0282 75.3498 15.5923 76.5324 15.4646C77.7148 15.5923 78.673 16.0282 79.399 16.7831C80.2724 17.6919 80.7092 19.0169 80.7092 20.7577V30.9336H84.799V20.7192C84.799 17.929 84.1239 15.7335 82.7741 14.1334Z" fill="#182037"/>
</svg>
