<svg width="26" height="27" viewBox="0 0 26 27" fill="none" xmlns="http://www.w3.org/2000/svg">
<path d="M15.39 5.99967C16.5295 6.222 17.5768 6.77931 18.3977 7.60027C19.2187 8.42122 19.776 9.46848 19.9983 10.608M15.39 1.33301C17.7575 1.59602 19.9652 2.65621 21.6506 4.33952C23.336 6.02282 24.399 8.22919 24.665 10.5963M10.9298 15.1733C9.52794 13.7714 8.42102 12.1863 7.60902 10.4951C7.53918 10.3496 7.50425 10.2769 7.47742 10.1849C7.38208 9.85778 7.45057 9.45615 7.64891 9.17915C7.70473 9.1012 7.77141 9.03452 7.90477 8.90115C8.31265 8.49328 8.51658 8.28934 8.64992 8.08427C9.15274 7.31089 9.15274 6.31388 8.64992 5.54051C8.51658 5.33544 8.31265 5.1315 7.90477 4.72363L7.67742 4.49628C7.05741 3.87626 6.7474 3.56625 6.41446 3.39785C5.7523 3.06294 4.97033 3.06294 4.30817 3.39785C3.97523 3.56625 3.66522 3.87626 3.0452 4.49628L2.86129 4.68019C2.2434 5.29808 1.93445 5.60703 1.6985 6.02706C1.43667 6.49315 1.24842 7.21706 1.25001 7.75165C1.25144 8.23342 1.3449 8.56268 1.53181 9.22121C2.53627 12.7602 4.43149 16.0996 7.21747 18.8856C10.0034 21.6715 13.3429 23.5668 16.8818 24.5712C17.5403 24.7581 17.8696 24.8516 18.3514 24.853C18.886 24.8546 19.6099 24.6664 20.076 24.4045C20.496 24.1686 20.805 23.8596 21.4228 23.2417L21.6068 23.0578C22.2268 22.4378 22.5368 22.1278 22.7052 21.7949C23.0401 21.1327 23.0401 20.3507 22.7052 19.6886C22.5368 19.3556 22.2268 19.0456 21.6068 18.4256L21.3794 18.1983C20.9715 17.7904 20.7676 17.5865 20.5625 17.4531C19.7892 16.9503 18.7921 16.9503 18.0188 17.4531C17.8137 17.5865 17.6098 17.7904 17.2019 18.1983C17.0685 18.3316 17.0018 18.3983 16.9239 18.4541C16.6469 18.6525 16.2453 18.721 15.9182 18.6256C15.8261 18.5988 15.7534 18.5639 15.6079 18.494C13.9167 17.682 12.3316 16.5751 10.9298 15.1733Z" stroke="white" stroke-width="2.33333" stroke-linecap="round" stroke-linejoin="round"/>
</svg>
