<svg width="22" height="26" viewBox="0 0 22 26" fill="none" xmlns="http://www.w3.org/2000/svg">
<path d="M13.3307 1.64746V6.46643C13.3307 7.11982 13.3307 7.44652 13.4579 7.69608C13.5697 7.9156 13.7482 8.09408 13.9677 8.20593C14.2173 8.33309 14.544 8.33309 15.1974 8.33309H20.0164M15.6641 14.1663H6.33073M15.6641 18.833H6.33073M8.66406 9.49968H6.33073M13.3307 1.33301H7.26406C5.30388 1.33301 4.32379 1.33301 3.5751 1.71449C2.91653 2.05004 2.3811 2.58547 2.04554 3.24404C1.66406 3.99273 1.66406 4.97282 1.66406 6.93301V19.0663C1.66406 21.0265 1.66406 22.0066 2.04554 22.7553C2.3811 23.4139 2.91653 23.9493 3.5751 24.2849C4.32379 24.6663 5.30388 24.6663 7.26406 24.6663H14.7307C16.6909 24.6663 17.671 24.6663 18.4197 24.2849C19.0783 23.9493 19.6137 23.4139 19.9493 22.7553C20.3307 22.0066 20.3307 21.0265 20.3307 19.0663V8.33301L13.3307 1.33301Z" stroke="white" stroke-width="2.33333" stroke-linecap="round" stroke-linejoin="round"/>
</svg>
