<svg width="25" height="23" viewBox="0 0 25 23" fill="none" xmlns="http://www.w3.org/2000/svg">
<path d="M9.49842 14.3333C9.49842 14.3333 11.0297 16.0833 13.5818 16.0833C16.1338 16.0833 17.6651 14.3333 17.6651 14.3333M16.7901 8.5H16.8018M10.3734 8.5H10.3851M13.5818 21.3333C19.0586 21.3333 23.4984 16.8935 23.4984 11.4167C23.4984 5.93984 19.0586 1.5 13.5818 1.5C8.10493 1.5 3.66509 5.93984 3.66509 11.4167C3.66509 12.525 3.84691 13.5909 4.18236 14.586C4.30859 14.9606 4.3717 15.1478 4.38309 15.2917C4.39433 15.4337 4.38583 15.5333 4.35069 15.6714C4.3151 15.8113 4.23652 15.9567 4.07936 16.2476L2.1711 19.7797C1.8989 20.2836 1.7628 20.5355 1.79326 20.7299C1.81979 20.8992 1.91946 21.0483 2.06579 21.1376C2.2338 21.2401 2.5186 21.2106 3.08822 21.1518L9.06275 20.5342C9.24368 20.5155 9.33414 20.5061 9.41659 20.5093C9.49769 20.5124 9.55494 20.52 9.63403 20.5382C9.71444 20.5568 9.81555 20.5957 10.0178 20.6736C11.1238 21.0997 12.3255 21.3333 13.5818 21.3333ZM17.3734 8.5C17.3734 8.82217 17.1123 9.08333 16.7901 9.08333C16.4679 9.08333 16.2068 8.82217 16.2068 8.5C16.2068 8.17783 16.4679 7.91667 16.7901 7.91667C17.1123 7.91667 17.3734 8.17783 17.3734 8.5ZM10.9568 8.5C10.9568 8.82217 10.6956 9.08333 10.3734 9.08333C10.0513 9.08333 9.79009 8.82217 9.79009 8.5C9.79009 8.17783 10.0513 7.91667 10.3734 7.91667C10.6956 7.91667 10.9568 8.17783 10.9568 8.5Z" stroke="white" stroke-width="2.33333" stroke-linecap="round" stroke-linejoin="round"/>
</svg>
