<svg width="26" height="26" viewBox="0 0 26 26" fill="none" xmlns="http://www.w3.org/2000/svg">
<path d="M11.2498 14.7502L23.4998 2.5002M11.3986 15.1329L14.4647 23.0173C14.7349 23.7119 14.8699 24.0591 15.0645 24.1605C15.2332 24.2484 15.4342 24.2485 15.603 24.1608C15.7977 24.0597 15.9332 23.7126 16.2041 23.0183L23.8928 3.31593C24.1374 2.68922 24.2597 2.37587 24.1928 2.17563C24.1347 2.00174 23.9982 1.86528 23.8243 1.80719C23.6241 1.7403 23.3107 1.86258 22.684 2.10715L2.98167 9.79588C2.28741 10.0668 1.94029 10.2023 1.83913 10.397C1.75143 10.5658 1.75155 10.7668 1.83944 10.9355C1.94083 11.1301 2.28812 11.2651 2.98269 11.5352L10.867 14.6014C11.008 14.6562 11.0785 14.6836 11.1379 14.7259C11.1905 14.7635 11.2365 14.8095 11.274 14.8621C11.3164 14.9215 11.3438 14.992 11.3986 15.1329Z" stroke="white" stroke-width="2.33333" stroke-linecap="round" stroke-linejoin="round"/>
</svg>
