<svg width="190" height="64" viewBox="0 0 190 64" fill="none" xmlns="http://www.w3.org/2000/svg">
<path d="M29.2573 16.0771C28.2305 14.5743 26.7625 13.3953 24.8532 12.5396C22.9439 11.6835 20.8597 11.235 18.6013 11.1932C15.6449 11.1932 13.2429 11.788 11.3947 12.9776C9.54716 14.1676 8.62283 15.785 8.62283 17.8299C8.62283 19.7503 9.51646 21.1486 11.3026 22.025C13.0887 22.9017 15.6859 23.5901 19.0943 24.0913C21.6401 24.4669 23.8165 24.9053 25.6233 25.4057C27.4297 25.9068 29.2162 26.6479 30.982 27.6284C32.7478 28.6093 34.0926 29.9451 35.0162 31.6355C35.9401 33.3262 36.4021 35.3391 36.4021 37.6773C36.4021 40.8076 35.5093 43.4165 33.7231 45.5039C31.9366 47.5901 29.7603 49.0621 27.1942 49.9174C24.6276 50.7727 21.7426 51.2002 18.5399 51.2002C9.71138 51.2002 3.53155 47.8823 0 41.246L5.17378 37.7397C7.96594 42.5394 12.4421 44.9399 18.6013 44.9399C20.4902 44.9399 22.2149 44.7313 23.7754 44.3143C25.3359 43.8962 26.6808 43.1139 27.81 41.9656C28.9392 40.8182 29.5036 39.3884 29.5036 37.6773C29.5036 35.4651 28.5283 33.8266 26.5783 32.7627C24.6276 31.6983 21.9275 30.9362 18.4781 30.4775C16.507 30.2267 14.8134 29.9346 13.3968 29.6007C11.9798 29.2669 10.4914 28.7868 8.93132 28.1608C7.37082 27.5348 6.10808 26.7832 5.14308 25.9068C4.17808 25.0301 3.3773 23.8928 2.74113 22.4945C2.10458 21.0959 1.7865 19.4996 1.7865 17.7051C1.7865 15.5342 2.27878 13.6145 3.2645 11.9448C4.24983 10.2751 5.56399 8.96075 7.20622 8.00013C8.84883 7.04028 10.6146 6.32069 12.5035 5.84058C14.3925 5.36046 16.3635 5.1202 18.4167 5.1202C26.0956 5.1202 31.4543 7.58319 34.4928 12.5084L29.2573 16.0771Z" fill="white"/>
<path d="M47.8199 27.5129C46.1208 29.4414 45.2711 31.8009 45.2711 34.5909C45.2711 37.3813 46.1105 39.7188 47.7893 41.6071C49.4681 43.4946 51.7197 44.4381 54.5451 44.4381C57.3701 44.4381 59.6324 43.4946 61.3315 41.6071C63.0306 39.7188 63.8803 37.3813 63.8803 34.5909C63.8803 31.8415 63 29.4928 61.2397 27.5436C59.479 25.5948 57.2473 24.6202 54.5451 24.6202C51.761 24.6202 49.5194 25.5844 47.8199 27.5129ZM65.8763 23.2971C68.8043 26.3129 70.2681 30.0775 70.2681 34.5909C70.2681 39.1449 68.8245 42.9099 65.9383 45.8843C63.0512 48.8591 59.2536 50.3467 54.5451 50.3467C49.8775 50.3467 46.1105 48.8591 43.2445 45.8843C40.3785 42.9099 38.9453 39.1449 38.9453 34.5909C38.9453 30.0365 40.3888 26.2619 43.2751 23.2664C46.1618 20.2709 49.9184 18.7733 54.5451 18.7733C59.1718 18.7733 62.9491 20.2809 65.8763 23.2971Z" fill="white"/>
<path d="M95.9836 41.6334C97.778 39.8213 98.6749 37.4943 98.6749 34.6523C98.6749 31.7691 97.7982 29.4313 96.0453 27.6396C94.2917 25.848 91.9883 24.9519 89.1339 24.9519C86.28 24.9519 83.9865 25.8788 82.2538 27.732C80.5211 29.586 79.6547 31.8923 79.6547 34.6523C79.6547 37.4115 80.5516 39.7186 82.3456 41.5718C84.1393 43.4254 86.4023 44.3518 89.1339 44.3518C91.9067 44.3518 94.1899 43.4462 95.9836 41.6334ZM72.8047 64V19.3911H78.737L79.1042 24.3342C80.2053 22.5626 81.7239 21.1935 83.6604 20.2251C85.5973 19.2575 87.6256 18.7733 89.7454 18.7733C94.2307 18.8145 97.89 20.3183 100.724 23.2838C103.557 26.2494 104.974 30.039 104.974 34.6523C104.974 39.3064 103.588 43.1164 100.815 46.0827C98.0424 49.0479 94.3526 50.5308 89.7454 50.5308C87.6664 50.5308 85.6381 50.1078 83.6604 49.2642C81.6831 48.4201 80.1641 47.1323 79.1042 45.4026V64H72.8047Z" fill="white"/>
<path d="M183.394 31.6344C183.23 29.3182 182.339 27.5301 180.719 26.2703C179.1 25.0108 176.999 24.3809 174.416 24.3809C172.038 24.3809 169.999 25.0108 168.297 26.2703C166.596 27.5301 165.499 29.3182 165.008 31.6344H183.394ZM164.885 36.9374C165.172 39.2126 166.207 41.0412 167.99 42.423C169.774 43.8047 172.038 44.4954 174.785 44.4954C176.425 44.4954 178.075 44.2008 179.735 43.6111C181.396 43.0229 182.677 42.24 183.579 41.2649L187.699 45.2267C186.182 46.8519 184.245 48.1117 181.888 49.0063C179.531 49.8998 177.122 50.3467 174.662 50.3467C169.702 50.3467 165.735 48.9042 162.763 46.0192C159.791 43.1342 158.305 39.2733 158.305 34.4377C158.305 29.8463 159.781 26.0873 162.733 23.1616C165.684 20.236 169.517 18.7733 174.232 18.7733C179.315 18.7733 183.271 20.3172 186.1 23.4058C188.929 26.4939 190.056 31.0044 189.482 36.9374H164.885Z" fill="white"/>
<path d="M142.825 21.478C141.598 22.1467 140.37 22.1467 139.143 21.478C138.666 21.2179 138.284 20.8839 137.992 20.4798V49.4932H143.918V20.5578C143.634 20.9267 143.272 21.2349 142.825 21.478Z" fill="white"/>
<path d="M153.825 21.478C152.598 22.1467 151.37 22.1467 150.143 21.478C149.666 21.2179 149.284 20.8839 148.992 20.4798V49.4932H154.918V20.5578C154.634 20.9267 154.272 21.2349 153.825 21.478Z" fill="white"/>
<path d="M142.855 11.5706C141.585 10.9344 140.315 10.9344 139.045 11.5706C137.775 12.2067 137.141 13.32 137.141 14.9111C137.141 16.5018 137.775 17.6251 139.045 18.281C140.315 18.9376 141.585 18.9376 142.855 18.281C144.125 17.6251 144.76 16.5018 144.76 14.9111C144.76 13.3203 144.125 12.2067 142.855 11.5706Z" fill="white"/>
<path d="M150.053 18.281C151.323 18.9376 152.593 18.9376 153.863 18.281C155.133 17.6251 155.767 16.5018 155.767 14.9111C155.767 13.3203 155.133 12.2067 153.863 11.5706C152.593 10.9344 151.323 10.9344 150.053 11.5706C148.784 12.2067 148.148 13.32 148.148 14.9111C148.148 16.5018 148.784 17.6251 150.053 18.281Z" fill="white"/>
<path d="M135.343 17.7623C135.061 17.8019 134.779 17.8679 134.495 17.8774C131.033 17.9925 131.168 17.5873 131.246 14.8509C131.272 13.9352 131.258 13.018 131.247 12.1016C131.235 11.118 131.44 10.2649 132.557 9.96102C133.125 9.80663 133.202 9.35908 133.383 8.89781C135.566 3.33544 139.814 0.316942 145.767 0.0222607C151.447 -0.258698 155.91 2.11134 158.777 7.09388C159.463 8.28442 159.497 9.93244 161.208 10.4597C161.44 10.5313 161.618 11.1234 161.627 11.4794C161.672 13.2147 161.757 14.9596 161.621 16.6857C161.506 18.1302 160.216 17.7859 159.238 17.9018C158.169 18.0284 157.784 17.4806 157.831 16.5923C157.915 15.0053 158.108 13.4168 157.936 11.8328C157.409 6.95359 153.489 3.04152 148.387 2.24515C142.657 1.35081 137.271 4.46232 135.403 9.86077C134.513 12.4359 134.962 15.0869 135.343 17.7623Z" fill="white"/>
<path d="M114.288 3.41356H107.516V23.8936C109.162 20.7222 111.611 18.9632 114.288 17.6079V3.41356Z" fill="white"/>
<path d="M131.389 22.6128C129.246 20.0531 126.052 18.7732 121.808 18.7732C121.698 18.7732 121.59 18.7774 121.481 18.7808C121.373 18.7774 121.265 18.7732 121.154 18.7732C116.91 18.7732 113.717 20.0531 111.573 22.6128C109.431 25.173 108.359 28.6858 108.359 33.1501V49.4932H114.851V33.2117C114.851 30.4265 115.544 28.3065 116.931 26.8525C118.083 25.6445 119.604 24.9472 121.481 24.7428C123.358 24.9472 124.879 25.6445 126.031 26.8525C127.418 28.3065 128.111 30.4265 128.111 33.2117V49.4932H134.603V33.1501C134.603 28.6858 133.531 25.173 131.389 22.6128Z" fill="white"/>
</svg>
