<svg width="152" height="24" viewBox="0 0 152 24" fill="none" xmlns="http://www.w3.org/2000/svg">
<g clip-path="url(#clip0_13712_29398)">
<path d="M11.446 1.93205C11.651 1.43928 12.349 1.43928 12.554 1.93205L15.0333 7.89303C15.1197 8.10077 15.3151 8.24271 15.5393 8.26069L21.9747 8.77661C22.5067 8.81926 22.7224 9.48317 22.3171 9.83037L17.414 14.0304C17.2432 14.1767 17.1685 14.4064 17.2207 14.6253L18.7187 20.9051C18.8425 21.4242 18.2778 21.8345 17.8223 21.5564L12.3128 18.1911C12.1207 18.0738 11.8793 18.0738 11.6872 18.1911L6.17767 21.5564C5.72221 21.8345 5.15746 21.4242 5.28129 20.9051L6.77926 14.6253C6.83147 14.4064 6.75684 14.1767 6.58597 14.0304L1.68289 9.83037C1.27757 9.48317 1.49329 8.81926 2.02528 8.77661L8.46065 8.26069C8.68493 8.24271 8.88029 8.10077 8.9667 7.89303L11.446 1.93205Z" fill="#F3F4F6"/>
<g clip-path="url(#clip1_13712_29398)">
<path d="M11.446 1.93205C11.651 1.43928 12.349 1.43928 12.554 1.93205L15.0333 7.89303C15.1197 8.10077 15.3151 8.24271 15.5393 8.26069L21.9747 8.77661C22.5067 8.81926 22.7224 9.48317 22.3171 9.83037L17.414 14.0304C17.2432 14.1767 17.1685 14.4064 17.2207 14.6253L18.7187 20.9051C18.8425 21.4242 18.2778 21.8345 17.8223 21.5564L12.3128 18.1911C12.1207 18.0738 11.8793 18.0738 11.6872 18.1911L6.17767 21.5564C5.72221 21.8345 5.15746 21.4242 5.28129 20.9051L6.77926 14.6253C6.83147 14.4064 6.75684 14.1767 6.58597 14.0304L1.68289 9.83037C1.27757 9.48317 1.49329 8.81926 2.02528 8.77661L8.46065 8.26069C8.68493 8.24271 8.88029 8.10077 8.9667 7.89303L11.446 1.93205Z" fill="#FDB022"/>
</g>
</g>
<g clip-path="url(#clip2_13712_29398)">
<path d="M43.446 1.93205C43.651 1.43928 44.349 1.43928 44.554 1.93205L47.0333 7.89303C47.1197 8.10077 47.3151 8.24271 47.5393 8.26069L53.9747 8.77661C54.5067 8.81926 54.7224 9.48317 54.3171 9.83037L49.414 14.0304C49.2432 14.1767 49.1685 14.4064 49.2207 14.6253L50.7187 20.9051C50.8425 21.4242 50.2778 21.8345 49.8223 21.5564L44.3128 18.1911C44.1207 18.0738 43.8793 18.0738 43.6872 18.1911L38.1777 21.5564C37.7222 21.8345 37.1575 21.4242 37.2813 20.9051L38.7793 14.6253C38.8315 14.4064 38.7568 14.1767 38.586 14.0304L33.6829 9.83037C33.2776 9.48317 33.4933 8.81926 34.0253 8.77661L40.4607 8.26069C40.6849 8.24271 40.8803 8.10077 40.9667 7.89303L43.446 1.93205Z" fill="#F3F4F6"/>
<g clip-path="url(#clip3_13712_29398)">
<path d="M43.446 1.93205C43.651 1.43928 44.349 1.43928 44.554 1.93205L47.0333 7.89303C47.1197 8.10077 47.3151 8.24271 47.5393 8.26069L53.9747 8.77661C54.5067 8.81926 54.7224 9.48317 54.3171 9.83037L49.414 14.0304C49.2432 14.1767 49.1685 14.4064 49.2207 14.6253L50.7187 20.9051C50.8425 21.4242 50.2778 21.8345 49.8223 21.5564L44.3128 18.1911C44.1207 18.0738 43.8793 18.0738 43.6872 18.1911L38.1777 21.5564C37.7222 21.8345 37.1575 21.4242 37.2813 20.9051L38.7793 14.6253C38.8315 14.4064 38.7568 14.1767 38.586 14.0304L33.6829 9.83037C33.2776 9.48317 33.4933 8.81926 34.0253 8.77661L40.4607 8.26069C40.6849 8.24271 40.8803 8.10077 40.9667 7.89303L43.446 1.93205Z" fill="#FDB022"/>
</g>
</g>
<g clip-path="url(#clip4_13712_29398)">
<path d="M75.446 1.93205C75.651 1.43928 76.349 1.43928 76.554 1.93205L79.0333 7.89303C79.1197 8.10077 79.3151 8.24271 79.5393 8.26069L85.9747 8.77661C86.5067 8.81926 86.7224 9.48317 86.3171 9.83037L81.414 14.0304C81.2432 14.1767 81.1685 14.4064 81.2207 14.6253L82.7187 20.9051C82.8425 21.4242 82.2778 21.8345 81.8223 21.5564L76.3128 18.1911C76.1207 18.0738 75.8793 18.0738 75.6872 18.1911L70.1777 21.5564C69.7222 21.8345 69.1575 21.4242 69.2813 20.9051L70.7793 14.6253C70.8315 14.4064 70.7568 14.1767 70.586 14.0304L65.6829 9.83037C65.2776 9.48317 65.4933 8.81926 66.0253 8.77661L72.4607 8.26069C72.6849 8.24271 72.8803 8.10077 72.9667 7.89303L75.446 1.93205Z" fill="#F3F4F6"/>
<g clip-path="url(#clip5_13712_29398)">
<path d="M75.446 1.93205C75.651 1.43928 76.349 1.43928 76.554 1.93205L79.0333 7.89303C79.1197 8.10077 79.3151 8.24271 79.5393 8.26069L85.9747 8.77661C86.5067 8.81926 86.7224 9.48317 86.3171 9.83037L81.414 14.0304C81.2432 14.1767 81.1685 14.4064 81.2207 14.6253L82.7187 20.9051C82.8425 21.4242 82.2778 21.8345 81.8223 21.5564L76.3128 18.1911C76.1207 18.0738 75.8793 18.0738 75.6872 18.1911L70.1777 21.5564C69.7222 21.8345 69.1575 21.4242 69.2813 20.9051L70.7793 14.6253C70.8315 14.4064 70.7568 14.1767 70.586 14.0304L65.6829 9.83037C65.2776 9.48317 65.4933 8.81926 66.0253 8.77661L72.4607 8.26069C72.6849 8.24271 72.8803 8.10077 72.9667 7.89303L75.446 1.93205Z" fill="#FDB022"/>
</g>
</g>
<g clip-path="url(#clip6_13712_29398)">
<path d="M107.446 1.93205C107.651 1.43928 108.349 1.43928 108.554 1.93205L111.033 7.89303C111.12 8.10077 111.315 8.24271 111.539 8.26069L117.975 8.77661C118.507 8.81926 118.722 9.48317 118.317 9.83037L113.414 14.0304C113.243 14.1767 113.169 14.4064 113.221 14.6253L114.719 20.9051C114.843 21.4242 114.278 21.8345 113.822 21.5564L108.313 18.1911C108.121 18.0738 107.879 18.0738 107.687 18.1911L102.178 21.5564C101.722 21.8345 101.157 21.4242 101.281 20.9051L102.779 14.6253C102.831 14.4064 102.757 14.1767 102.586 14.0304L97.6829 9.83037C97.2776 9.48317 97.4933 8.81926 98.0253 8.77661L104.461 8.26069C104.685 8.24271 104.88 8.10077 104.967 7.89303L107.446 1.93205Z" fill="#F3F4F6"/>
<g clip-path="url(#clip7_13712_29398)">
<path d="M107.446 1.93205C107.651 1.43928 108.349 1.43928 108.554 1.93205L111.033 7.89303C111.12 8.10077 111.315 8.24271 111.539 8.26069L117.975 8.77661C118.507 8.81926 118.722 9.48317 118.317 9.83037L113.414 14.0304C113.243 14.1767 113.169 14.4064 113.221 14.6253L114.719 20.9051C114.843 21.4242 114.278 21.8345 113.822 21.5564L108.313 18.1911C108.121 18.0738 107.879 18.0738 107.687 18.1911L102.178 21.5564C101.722 21.8345 101.157 21.4242 101.281 20.9051L102.779 14.6253C102.831 14.4064 102.757 14.1767 102.586 14.0304L97.6829 9.83037C97.2776 9.48317 97.4933 8.81926 98.0253 8.77661L104.461 8.26069C104.685 8.24271 104.88 8.10077 104.967 7.89303L107.446 1.93205Z" fill="#FDB022"/>
</g>
</g>
<g clip-path="url(#clip8_13712_29398)">
<path d="M139.446 1.93205C139.651 1.43928 140.349 1.43928 140.554 1.93205L143.033 7.89303C143.12 8.10077 143.315 8.24271 143.539 8.26069L149.975 8.77661C150.507 8.81926 150.722 9.48317 150.317 9.83037L145.414 14.0304C145.243 14.1767 145.169 14.4064 145.221 14.6253L146.719 20.9051C146.843 21.4242 146.278 21.8345 145.822 21.5564L140.313 18.1911C140.121 18.0738 139.879 18.0738 139.687 18.1911L134.178 21.5564C133.722 21.8345 133.157 21.4242 133.281 20.9051L134.779 14.6253C134.831 14.4064 134.757 14.1767 134.586 14.0304L129.683 9.83037C129.278 9.48317 129.493 8.81926 130.025 8.77661L136.461 8.26069C136.685 8.24271 136.88 8.10077 136.967 7.89303L139.446 1.93205Z" fill="#F3F4F6"/>
<g clip-path="url(#clip9_13712_29398)">
<path d="M139.446 1.93205C139.651 1.43928 140.349 1.43928 140.554 1.93205L143.033 7.89303C143.12 8.10077 143.315 8.24271 143.539 8.26069L149.975 8.77661C150.507 8.81926 150.722 9.48317 150.317 9.83037L145.414 14.0304C145.243 14.1767 145.169 14.4064 145.221 14.6253L146.719 20.9051C146.843 21.4242 146.278 21.8345 145.822 21.5564L140.313 18.1911C140.121 18.0738 139.879 18.0738 139.687 18.1911L134.178 21.5564C133.722 21.8345 133.157 21.4242 133.281 20.9051L134.779 14.6253C134.831 14.4064 134.757 14.1767 134.586 14.0304L129.683 9.83037C129.278 9.48317 129.493 8.81926 130.025 8.77661L136.461 8.26069C136.685 8.24271 136.88 8.10077 136.967 7.89303L139.446 1.93205Z" fill="#FDB022"/>
</g>
</g>
<defs>
<clipPath id="clip0_13712_29398">
<rect width="24" height="24" fill="white"/>
</clipPath>
<clipPath id="clip1_13712_29398">
<rect width="24" height="24" fill="white"/>
</clipPath>
<clipPath id="clip2_13712_29398">
<rect width="24" height="24" fill="white" transform="translate(32)"/>
</clipPath>
<clipPath id="clip3_13712_29398">
<rect width="24" height="24" fill="white" transform="translate(32)"/>
</clipPath>
<clipPath id="clip4_13712_29398">
<rect width="24" height="24" fill="white" transform="translate(64)"/>
</clipPath>
<clipPath id="clip5_13712_29398">
<rect width="24" height="24" fill="white" transform="translate(64)"/>
</clipPath>
<clipPath id="clip6_13712_29398">
<rect width="24" height="24" fill="white" transform="translate(96)"/>
</clipPath>
<clipPath id="clip7_13712_29398">
<rect width="24" height="24" fill="white" transform="translate(96)"/>
</clipPath>
<clipPath id="clip8_13712_29398">
<rect width="24" height="24" fill="white" transform="translate(128)"/>
</clipPath>
<clipPath id="clip9_13712_29398">
<rect width="24" height="24" fill="white" transform="translate(128)"/>
</clipPath>
</defs>
</svg>
