<svg width="143" height="28" viewBox="0 0 143 28" fill="none" xmlns="http://www.w3.org/2000/svg">
<g clip-path="url(#clip0_13712_29404)">
<path d="M70.7248 16.6672L72.75 18.0199C72.0927 18.9899 70.5206 20.6542 67.8027 20.6542C64.4276 20.6542 61.9141 18.0378 61.9141 14.7094C61.9141 11.1675 64.4542 8.76465 67.5185 8.76465C70.6005 8.76465 72.1104 11.2208 72.599 12.5468L72.8655 13.2232L64.925 16.5159C65.529 17.7085 66.4706 18.3136 67.8027 18.3136C69.1351 18.3136 70.0587 17.6551 70.7248 16.6672ZM64.4987 14.5226L69.8012 12.3155C69.5081 11.5769 68.6378 11.0519 67.5984 11.0519C66.2751 11.0519 64.4366 12.2266 64.4987 14.5226Z" fill="#FF302F"/>
<path d="M58.0859 2.70459H60.6438V20.1117H58.0859V2.70459Z" fill="#20B15A"/>
<path d="M54.0561 9.22743H56.5253V19.7999C56.5253 24.1871 53.9406 25.9937 50.8852 25.9937C48.0075 25.9937 46.2756 24.0537 45.6272 22.4786L47.892 21.5351C48.3005 22.5051 49.2865 23.6533 50.8852 23.6533C52.8481 23.6533 54.0561 22.434 54.0561 20.1559V19.3016H53.9673C53.381 20.0134 52.2619 20.6541 50.8408 20.6541C47.8742 20.6541 45.1562 18.0644 45.1562 14.7273C45.1562 11.3721 47.8742 8.75586 50.8408 8.75586C52.2531 8.75586 53.381 9.38772 53.9673 10.0819H54.0561V9.22743ZM54.2336 14.7273C54.2336 12.627 52.8392 11.0963 51.0628 11.0963C49.2686 11.0963 47.7587 12.627 47.7587 14.7273C47.7587 16.8007 49.2686 18.3047 51.0628 18.3047C52.8394 18.3137 54.2338 16.8007 54.2338 14.7273" fill="#3686F7"/>
<path d="M31.1123 14.6831C31.1123 18.1093 28.4478 20.6278 25.1792 20.6278C21.9107 20.6278 19.2461 18.1005 19.2461 14.6831C19.2461 11.2391 21.9107 8.72949 25.1792 8.72949C28.4478 8.72949 31.1123 11.2391 31.1123 14.6831ZM28.5188 14.6831C28.5188 12.5473 26.9733 11.0788 25.1792 11.0788C23.3851 11.0788 21.8396 12.5473 21.8396 14.6831C21.8396 16.8011 23.3851 18.2873 25.1792 18.2873C26.9734 18.2873 28.5188 16.8011 28.5188 14.6831Z" fill="#FF302F"/>
<path d="M44.0732 14.7094C44.0732 18.1356 41.4086 20.6541 38.1401 20.6541C34.8715 20.6541 32.207 18.1355 32.207 14.7094C32.207 11.2654 34.8715 8.76465 38.1401 8.76465C41.4086 8.76465 44.0732 11.2565 44.0732 14.7094ZM41.4708 14.7094C41.4708 12.5736 39.9254 11.1051 38.1312 11.1051C36.3369 11.1051 34.7915 12.5736 34.7915 14.7094C34.7915 16.8274 36.3371 18.3136 38.1312 18.3136C39.9342 18.3136 41.4708 16.8185 41.4708 14.7094Z" fill="#FFBA40"/>
<path d="M9.49367 18.0466C5.77209 18.0466 2.85894 15.0386 2.85894 11.3098C2.85894 7.58105 5.77209 4.57305 9.49367 4.57305C11.501 4.57305 12.9664 5.36505 14.05 6.37962L15.8354 4.59091C14.3255 3.14034 12.3093 2.03662 9.49367 2.03662C4.3955 2.03676 0.105469 6.20176 0.105469 11.3098C0.105469 16.4178 4.3955 20.5829 9.49367 20.5829C12.2471 20.5829 14.3255 19.6752 15.9509 17.9843C17.6206 16.3112 18.1358 13.9618 18.1358 12.0573C18.1358 11.461 18.0648 10.847 17.9848 10.3932H9.49367V12.8672H15.5423C15.3646 14.4158 14.8761 15.4748 14.1567 16.1955C13.2862 17.0766 11.9097 18.0466 9.49367 18.0466Z" fill="#3686F7"/>
</g>
<path d="M78.5996 7.20312H82.7568C83.6416 7.20312 84.4092 7.34668 85.0596 7.63379C85.71 7.9209 86.2109 8.3457 86.5625 8.9082C86.9199 9.46484 87.0986 10.1504 87.0986 10.9648C87.0986 11.5684 86.9697 12.1162 86.7119 12.6084C86.46 13.1006 86.1113 13.5137 85.666 13.8477C85.2207 14.1758 84.7051 14.4014 84.1191 14.5244L83.7412 14.665H79.3027L79.2852 13.7422H83.0029C83.6709 13.7422 84.2275 13.6133 84.6729 13.3555C85.1182 13.0977 85.4521 12.7578 85.6748 12.3359C85.9033 11.9082 86.0176 11.4512 86.0176 10.9648C86.0176 10.3848 85.8916 9.88379 85.6396 9.46191C85.3936 9.03418 85.0273 8.70605 84.541 8.47754C84.0547 8.24902 83.46 8.13477 82.7568 8.13477H79.6807V20H78.5996V7.20312ZM86.501 20L83.1875 14.2783L84.3477 14.2695L87.6523 19.8857V20H86.501ZM93.4971 20.1758C92.876 20.1758 92.3047 20.0615 91.7832 19.833C91.2676 19.6045 90.8164 19.2822 90.4297 18.8662C90.0488 18.4502 89.7529 17.958 89.542 17.3896C89.3369 16.8154 89.2344 16.1885 89.2344 15.5088V15.1309C89.2344 14.3984 89.3428 13.7363 89.5596 13.1445C89.7764 12.5527 90.0752 12.0459 90.4561 11.624C90.8369 11.2021 91.2705 10.8799 91.7568 10.6572C92.249 10.4287 92.7646 10.3145 93.3037 10.3145C93.9072 10.3145 94.4434 10.4229 94.9121 10.6396C95.3809 10.8506 95.7734 11.1523 96.0898 11.5449C96.4121 11.9316 96.6553 12.3916 96.8193 12.9248C96.9834 13.4521 97.0654 14.0352 97.0654 14.6738V15.3154H89.8672V14.4189H96.0195V14.2959C96.0078 13.7627 95.8994 13.2646 95.6943 12.8018C95.4951 12.333 95.1963 11.9521 94.7979 11.6592C94.3994 11.3662 93.9014 11.2197 93.3037 11.2197C92.8584 11.2197 92.4482 11.3135 92.0732 11.501C91.7041 11.6885 91.3848 11.958 91.1152 12.3096C90.8516 12.6553 90.6465 13.0684 90.5 13.5488C90.3594 14.0234 90.2891 14.5508 90.2891 15.1309V15.5088C90.2891 16.0361 90.3652 16.5283 90.5176 16.9854C90.6758 17.4365 90.8984 17.835 91.1855 18.1807C91.4785 18.5264 91.8242 18.7959 92.2227 18.9893C92.6211 19.1826 93.0605 19.2793 93.541 19.2793C94.1035 19.2793 94.6016 19.1768 95.0352 18.9717C95.4688 18.7607 95.8584 18.4297 96.2041 17.9785L96.8633 18.4883C96.6582 18.793 96.4004 19.0742 96.0898 19.332C95.7852 19.5898 95.4189 19.7949 94.9912 19.9473C94.5635 20.0996 94.0654 20.1758 93.4971 20.1758ZM101.82 18.9893L104.87 10.4902H105.951L102.392 20H101.627L101.82 18.9893ZM99.0605 10.4902L102.146 19.0156L102.312 20H101.539L97.9707 10.4902H99.0605ZM108.852 10.4902V20H107.806V10.4902H108.852ZM107.621 7.73926C107.621 7.54004 107.683 7.37305 107.806 7.23828C107.935 7.09766 108.11 7.02734 108.333 7.02734C108.556 7.02734 108.731 7.09766 108.86 7.23828C108.995 7.37305 109.062 7.54004 109.062 7.73926C109.062 7.93262 108.995 8.09961 108.86 8.24023C108.731 8.375 108.556 8.44238 108.333 8.44238C108.11 8.44238 107.935 8.375 107.806 8.24023C107.683 8.09961 107.621 7.93262 107.621 7.73926ZM115.399 20.1758C114.778 20.1758 114.207 20.0615 113.686 19.833C113.17 19.6045 112.719 19.2822 112.332 18.8662C111.951 18.4502 111.655 17.958 111.444 17.3896C111.239 16.8154 111.137 16.1885 111.137 15.5088V15.1309C111.137 14.3984 111.245 13.7363 111.462 13.1445C111.679 12.5527 111.978 12.0459 112.358 11.624C112.739 11.2021 113.173 10.8799 113.659 10.6572C114.151 10.4287 114.667 10.3145 115.206 10.3145C115.81 10.3145 116.346 10.4229 116.814 10.6396C117.283 10.8506 117.676 11.1523 117.992 11.5449C118.314 11.9316 118.558 12.3916 118.722 12.9248C118.886 13.4521 118.968 14.0352 118.968 14.6738V15.3154H111.77V14.4189H117.922V14.2959C117.91 13.7627 117.802 13.2646 117.597 12.8018C117.397 12.333 117.099 11.9521 116.7 11.6592C116.302 11.3662 115.804 11.2197 115.206 11.2197C114.761 11.2197 114.351 11.3135 113.976 11.501C113.606 11.6885 113.287 11.958 113.018 12.3096C112.754 12.6553 112.549 13.0684 112.402 13.5488C112.262 14.0234 112.191 14.5508 112.191 15.1309V15.5088C112.191 16.0361 112.268 16.5283 112.42 16.9854C112.578 17.4365 112.801 17.835 113.088 18.1807C113.381 18.5264 113.727 18.7959 114.125 18.9893C114.523 19.1826 114.963 19.2793 115.443 19.2793C116.006 19.2793 116.504 19.1768 116.938 18.9717C117.371 18.7607 117.761 18.4297 118.106 17.9785L118.766 18.4883C118.561 18.793 118.303 19.0742 117.992 19.332C117.688 19.5898 117.321 19.7949 116.894 19.9473C116.466 20.0996 115.968 20.1758 115.399 20.1758ZM123.679 17.7764L125.973 10.4902H126.711L126.271 12.4502L123.872 20H123.134L123.679 17.7764ZM121.297 10.4902L123.31 17.8203L123.74 20H122.976L120.216 10.4902H121.297ZM129.567 17.7939L131.527 10.4902H132.608L129.849 20H129.093L129.567 17.7939ZM126.86 10.4902L129.119 17.7148L129.69 20H128.952L126.5 12.4414L126.087 10.4902H126.86ZM140.325 17.5742C140.325 17.3164 140.261 17.0615 140.132 16.8096C140.003 16.5576 139.754 16.3262 139.385 16.1152C139.021 15.9043 138.485 15.7256 137.776 15.5791C137.249 15.4619 136.777 15.3301 136.361 15.1836C135.951 15.0371 135.605 14.8613 135.324 14.6562C135.043 14.4512 134.829 14.2051 134.683 13.918C134.536 13.6309 134.463 13.291 134.463 12.8984C134.463 12.5469 134.539 12.2158 134.691 11.9053C134.85 11.5889 135.072 11.3135 135.359 11.0791C135.652 10.8389 136.004 10.6514 136.414 10.5166C136.83 10.3818 137.296 10.3145 137.812 10.3145C138.544 10.3145 139.171 10.4404 139.692 10.6924C140.22 10.9385 140.621 11.2754 140.896 11.7031C141.178 12.1309 141.318 12.6143 141.318 13.1533H140.272C140.272 12.8252 140.176 12.5146 139.982 12.2217C139.795 11.9287 139.517 11.6885 139.147 11.501C138.784 11.3135 138.339 11.2197 137.812 11.2197C137.267 11.2197 136.824 11.3018 136.484 11.4658C136.145 11.6299 135.896 11.8379 135.737 12.0898C135.585 12.3418 135.509 12.6025 135.509 12.8721C135.509 13.083 135.541 13.2764 135.605 13.4521C135.676 13.6221 135.799 13.7803 135.975 13.9268C136.156 14.0732 136.414 14.2109 136.748 14.3398C137.082 14.4688 137.516 14.5947 138.049 14.7178C138.816 14.8877 139.443 15.0957 139.93 15.3418C140.422 15.582 140.785 15.8809 141.02 16.2383C141.254 16.5898 141.371 17.0176 141.371 17.5215C141.371 17.9141 141.289 18.2744 141.125 18.6025C140.961 18.9248 140.724 19.2031 140.413 19.4375C140.108 19.6719 139.739 19.8535 139.306 19.9824C138.878 20.1113 138.397 20.1758 137.864 20.1758C137.062 20.1758 136.382 20.0439 135.825 19.7803C135.274 19.5107 134.855 19.1592 134.568 18.7256C134.287 18.2861 134.146 17.8203 134.146 17.3281H135.192C135.228 17.8203 135.383 18.21 135.658 18.4971C135.934 18.7783 136.271 18.9775 136.669 19.0947C137.073 19.2119 137.472 19.2705 137.864 19.2705C138.403 19.2705 138.854 19.1914 139.218 19.0332C139.581 18.875 139.856 18.667 140.044 18.4092C140.231 18.1514 140.325 17.873 140.325 17.5742Z" fill="#1F2937"/>
<defs>
<clipPath id="clip0_13712_29404">
<rect width="73" height="24" fill="white" transform="translate(0 2)"/>
</clipPath>
</defs>
</svg>
