<svg width="24" height="24" viewBox="0 0 24 24" fill="none" xmlns="http://www.w3.org/2000/svg">
<g clip-path="url(#clip0_13871_24492)">
<path d="M21.75 7C21.1533 7 20.581 7.31607 20.159 7.87868C19.9174 8.2008 19.7364 8.58862 19.6259 9.01065C19.4859 9.5449 19.0523 10 18.5 10H17.5C16.9477 10 16.5141 9.5449 16.3741 9.01065C16.2636 8.58862 16.0826 8.2008 15.841 7.87868C15.419 7.31607 14.8467 7 14.25 7H9.75C9.15326 7 8.58097 7.31607 8.15901 7.87868C7.91742 8.2008 7.73645 8.58862 7.62587 9.01065C7.48589 9.5449 7.05228 10 6.5 10H5.5C4.94772 10 4.51411 9.5449 4.37413 9.01065C4.26355 8.58862 4.08258 8.2008 3.84099 7.87868C3.41903 7.31607 2.84674 7 2.25 7H1C0.447715 7 0 7.44772 0 8V20C0 20.5523 0.447715 21 1 21H2.25C2.84674 21 3.41903 20.6839 3.84099 20.1213C4.08258 19.7992 4.26355 19.4114 4.37413 18.9893C4.51411 18.4551 4.94772 18 5.5 18H6.5C7.05228 18 7.48589 18.4551 7.62587 18.9893C7.73645 19.4114 7.91742 19.7992 8.15901 20.1213C8.58097 20.6839 9.15326 21 9.75 21H14.25C14.8467 21 15.419 20.6839 15.841 20.1213C16.0826 19.7992 16.2636 19.4114 16.3741 18.9893C16.5141 18.4551 16.9477 18 17.5 18H18.5C19.0523 18 19.4859 18.4551 19.6259 18.9893C19.7364 19.4114 19.9174 19.7992 20.159 20.1213C20.581 20.6839 21.1533 21 21.75 21H23C23.5523 21 24 20.5523 24 20V8C24 7.44772 23.5523 7 23 7H21.75ZM2.25 19C1.83579 19 1.5 18.6642 1.5 18.25V9.75C1.5 9.33579 1.83579 9 2.25 9C2.44891 9 2.63968 9.10536 2.78033 9.29289C2.92098 9.48043 3 9.73478 3 10V18C3 18.2652 2.92098 18.5196 2.78033 18.7071C2.63968 18.8946 2.44891 19 2.25 19ZM16 16C15.4477 16 15 16.4477 15 17V18C15 18.2652 14.921 18.5196 14.7803 18.7071C14.6397 18.8946 14.4489 19 14.25 19H9.75C9.55109 19 9.36032 18.8946 9.21967 18.7071C9.07902 18.5196 9 18.2652 9 18V17C9 16.4477 8.55229 16 8 16H5.5C4.94772 16 4.5 15.5523 4.5 15V13C4.5 12.4477 4.94772 12 5.5 12H8C8.55229 12 9 11.5523 9 11V10C9 9.73478 9.07902 9.48043 9.21967 9.29289C9.36032 9.10536 9.55109 9 9.75 9H14.25C14.4489 9 14.6397 9.10536 14.7803 9.29289C14.921 9.48043 15 9.73478 15 10V11C15 11.5523 15.4477 12 16 12H18.5C19.0523 12 19.5 12.4477 19.5 13V15C19.5 15.5523 19.0523 16 18.5 16H16ZM22.5 18.25C22.5 18.6642 22.1642 19 21.75 19C21.5511 19 21.3603 18.8946 21.2197 18.7071C21.079 18.5196 21 18.2652 21 18V10C21 9.73478 21.079 9.48043 21.2197 9.29289C21.3603 9.10536 21.5511 9 21.75 9C22.1642 9 22.5 9.33579 22.5 9.75V18.25Z" fill="#36A5E1"/>
<path d="M16.1641 2.75C16.1641 2.33579 15.8283 2 15.4141 2H7.91406C7.49985 2 7.16406 2.33579 7.16406 2.75C7.16406 3.16421 7.49985 3.5 7.91406 3.5H9.91406C10.4663 3.5 10.9141 3.94772 10.9141 4.5V5.25C10.9141 5.66421 11.2498 6 11.6641 6C12.0783 6 12.4141 5.66421 12.4141 5.25V4.5C12.4141 3.94772 12.8618 3.5 13.4141 3.5H15.4141C15.8283 3.5 16.1641 3.16421 16.1641 2.75Z" fill="#36A5E1"/>
</g>
<defs>
<clipPath id="clip0_13871_24492">
<rect width="24" height="24" fill="white"/>
</clipPath>
</defs>
</svg>
