<svg viewBox="0 0 500 400" fill="none" width="500" height="400" xmlns="http://www.w3.org/2000/svg">
<defs>
<linearGradient id="integLineGrad" x1="0" y1="0" x2="1" y2="0">
<stop offset="0%" stop-color="hsl(201 100% 80%)"></stop>
<stop offset="100%" stop-color="hsl(201 72% 55%)"></stop>
</linearGradient>
<linearGradient id="integFillGrad" x1="0" y1="0" x2="0" y2="1">
<stop offset="0%" stop-color="hsl(201 100% 80% / 0.2)"></stop>
<stop offset="100%" stop-color="hsl(201 100% 80% / 0)"></stop>
</linearGradient>
</defs>
<path d="M20 350 C60 340, 80 330, 120 310 S180 280, 200 260 S240 230, 270 200 S310 160, 340 120 S380 70, 420 30 L480 10" stroke="url(#integLineGrad)" stroke-width="3.5" stroke-linecap="round" fill="none"></path>
<path d="M20 350 C60 340, 80 330, 120 310 S180 280, 200 260 S240 230, 270 200 S310 160, 340 120 S380 70, 420 30 L480 10 L480 400 L20 400 Z" fill="url(#integFillGrad)"></path>
<circle cx="120" cy="310" r="5" fill="hsl(201 72% 55%)"></circle>
<circle cx="200" cy="260" r="5" fill="hsl(201 72% 55%)"></circle>
<circle cx="270" cy="200" r="5" fill="hsl(201 72% 55%)"></circle>
<circle cx="340" cy="120" r="6" fill="hsl(201 72% 55%)"></circle>
<circle cx="420" cy="30" r="7" fill="hsl(201 72% 55%)"></circle>
</svg>